# xmcd
#
# Track frame offsets:
# 150
# 15169
# 31438
# 46819
# 68571
# 86634
# 103245
# 117215
# 132263
# 144824
# 163061
#
# Disc length: 2373 seconds
#
#
# Revision: 0
# Processed by: cddbd v1.5.2PL0 Copyright (c) Steve Scherf et al.
# Submitted via: FreeRIP 2.96 
#
DISCID=8509430b
DTITLE=Gene Watson - In A Perfect World
DYEAR=2007
DGENRE=Country
TTITLE0=Don't You Ever Get Tired Of Hurting Me
TTITLE1=Let Me Be The First To Go (With Vince Gill)
TTITLE2=What Was I Thinking
TTITLE3=Today I Started Loving You Again (With Lee Ann Womack)
TTITLE4=In A Perfect World (With Joe Nichols)
TTITLE5=She's Already Gone
TTITLE6=This Side Of The Door (With Mark Chesnutt)
TTITLE7=Together Again (With Rhonda Vincent)
TTITLE8=I Buried Our Love
TTITLE9=A Good Time To Turn Around (With Connie Smith)
TTITLE10=Like I Wasn't Even There
EXTD=Shanachie Ent. Corp.
EXTT0=
EXTT1=
EXTT2=
EXTT3=
EXTT4=
EXTT5=
EXTT6=
EXTT7=
EXTT8=
EXTT9=
EXTT10=
PLAYORDER=
